# xmcd
#
# Track frame offsets: 
#        160
#        15510
#        36577
#        54147
#        69795
#        84032
#        102667
#        119707
#        137220
#        165017
#        179312
#        196607
#        214080
#        229050
#        248085
#
# Disc length: 3535 seconds
#
# Revision: 0
# Processed by: cddbd v1.5.1PL0 Copyright (c) Steve Scherf et al.
# Submitted via: ExactAudioCopy v0.95a3
#
DISCID=bb0dcd0f
DTITLE=Various Artist - Новое И Лучшее
DYEAR=1995
DGENRE=Pop
TTITLE0=Ирина Салтыкова - Серые Глаза
TTITLE1=Свин Хин-Хин - Почему Ты Молчишь
TTITLE2=Наталья Сенчукова - Розовый Закат
TTITLE3=Рок-Острова - Лишь Только Солнце
TTITLE4=Сергей Любавин - Саня
TTITLE5=Роман Рябцев - Начало Конца
TTITLE6=Валерий Меладзе - Так И Скажи
TTITLE7=Таня Буланова - Я Сведу Тебя С Ума
TTITLE8=Нэнси - Дым Сигарет С Ментолом (Remix)
TTITLE9=Лена Ильичёва - Я Никому Не Скажу
TTITLE10=Ласковый Бык - Ты, Попроще Слова Найди
TTITLE11=Диана - Не Говори
TTITLE12=Лариса Черникова - Я Лечу Высоко
TTITLE13=Свободная Земля - Милый
TTITLE14=Валера Орлов - Не Торопись
EXTD=
EXTT0=
EXTT1=
EXTT2=
EXTT3=
EXTT4=
EXTT5=
EXTT6=
EXTT7=
EXTT8=
EXTT9=
EXTT10=
EXTT11=
EXTT12=
EXTT13=
EXTT14=
PLAYORDER=
